<svg width="48" height="48" viewBox="0 0 48 48" fill="none" xmlns="http://www.w3.org/2000/svg">
<path fill-rule="evenodd" clip-rule="evenodd" d="M24 48C37.2548 48 48 37.2548 48 24C48 10.7452 37.2548 0 24 0C10.7452 0 0 10.7452 0 24C0 37.2548 10.7452 48 24 48Z" fill="#FF8000"/>
<path fill-rule="evenodd" clip-rule="evenodd" d="M23 33C23 33.553 23.448 34 24 34C24.552 34 25 33.553 25 33V25H33C33.552 25 34 24.553 34 24C34 23.447 33.552 23 33 23H25V15C25 14.447 24.552 14 24 14C23.448 14 23 14.447 23 15V23H15C14.448 23 14 23.447 14 24C14 24.553 14.448 25 15 25H23V33Z" fill="white"/>
<mask id="mask0" mask-type="alpha" maskUnits="userSpaceOnUse" x="14" y="14" width="20" height="20">
<path fill-rule="evenodd" clip-rule="evenodd" d="M23 33C23 33.553 23.448 34 24 34C24.552 34 25 33.553 25 33V25H33C33.552 25 34 24.553 34 24C34 23.447 33.552 23 33 23H25V15C25 14.447 24.552 14 24 14C23.448 14 23 14.447 23 15V23H15C14.448 23 14 23.447 14 24C14 24.553 14.448 25 15 25H23V33Z" fill="white"/>
</mask>
<g mask="url(#mask0)">
<path fill-rule="evenodd" clip-rule="evenodd" d="M12 12H36V36H12V12Z" fill="white"/>
</g>
</svg>
