<svg width="64" height="64" viewBox="0 0 64 64" fill="none" xmlns="http://www.w3.org/2000/svg">
<path d="M56.8889 27.5271H52.3556L37.7778 11.2605C37.6202 11.0854 37.4297 10.943 37.2171 10.8416C37.0045 10.7401 36.774 10.6815 36.5387 10.6691C36.3035 10.6568 36.0681 10.6908 35.846 10.7694C35.624 10.848 35.4196 10.9696 35.2445 11.1271C35.0694 11.2847 34.927 11.4753 34.8256 11.6879C34.7241 11.9005 34.6655 12.131 34.6531 12.3662C34.6407 12.6014 34.6748 12.8368 34.7534 13.0589C34.832 13.281 34.9535 13.4854 35.1111 13.6605L47.5556 27.616H16.4445L28.8889 13.6605C29.0465 13.4854 29.168 13.281 29.2466 13.0589C29.3252 12.8368 29.3593 12.6014 29.3469 12.3662C29.3345 12.131 29.2759 11.9005 29.1745 11.6879C29.073 11.4753 28.9307 11.2847 28.7556 11.1271C28.5805 10.9696 28.3761 10.848 28.154 10.7694C27.9319 10.6908 27.6965 10.6568 27.4613 10.6691C27.226 10.6815 26.9955 10.7401 26.7829 10.8416C26.5704 10.943 26.3798 11.0854 26.2222 11.2605L11.7333 27.5271H7.11112C6.63963 27.5271 6.18744 27.7144 5.85404 28.0478C5.52064 28.3812 5.33334 28.8334 5.33334 29.3049C5.33334 29.7764 5.52064 30.2286 5.85404 30.562C6.18744 30.8954 6.63963 31.0827 7.11112 31.0827H56.8889C57.3604 31.0827 57.8126 30.8954 58.146 30.562C58.4794 30.2286 58.6667 29.7764 58.6667 29.3049C58.6667 28.8334 58.4794 28.3812 58.146 28.0478C57.8126 27.7144 57.3604 27.5271 56.8889 27.5271Z" fill="#333333"/>
<path d="M14.2221 55.9716H49.7776L54.0443 34.6383H10.0443L14.2221 55.9716Z" fill="#333333"/>
</svg>
