<svg width="24" height="24" viewBox="0 0 24 24" fill="none" xmlns="http://www.w3.org/2000/svg">
<path d="M14.1967 15.6449C12.4445 15.6449 11.019 17.0707 11.019 18.8224C11.019 20.5746 12.4445 22 14.1967 22C15.9484 22 17.3742 20.5746 17.3742 18.8224C17.3742 17.0707 15.9484 15.6449 14.1967 15.6449ZM14.1967 19.757C13.6812 19.757 13.2621 19.3379 13.2621 18.8224C13.2621 18.3069 13.6812 17.8878 14.1967 17.8878C14.7121 17.8878 15.1312 18.3069 15.1312 18.8224C15.1312 19.3379 14.7121 19.757 14.1967 19.757Z" fill="#0500FF"/>
<path d="M13.7307 2C14.0184 2.06861 14.2095 2.16211 14.3041 2.2805L20.4028 9.90928C20.5154 10.0497 20.577 10.2274 20.577 10.4112V18.04C20.577 18.4719 20.2421 18.8224 19.8294 18.8224H19.0373C18.6668 18.8224 18.3393 18.5435 18.2915 18.1593C17.998 15.8066 16.2047 14.3473 14.0354 14.3473C11.8661 14.3473 10.0728 15.8065 9.77935 18.1593C9.73152 18.5435 9.40369 18.8224 9.03358 18.8224H4C3.44772 18.8224 3 18.3747 3 17.8224V3C3 2.44772 3.44772 2 4 2H13.7307ZM8.98832 8.25951C8.98832 8.69183 9.32287 9.04195 9.73598 9.04195L15.8855 9C16.5195 9 16.7911 8.50974 16.3855 8L13.3855 4.5C13.3321 4.43298 13.2483 4.34571 13.1643 4.26289C12.9887 4.08955 12.749 4 12.5022 4H10.1777C9.9869 4 9.79906 4.05322 9.64743 4.16905C9.38406 4.37025 8.99639 4.71483 8.99639 5L8.98832 8.25951Z" fill="#0500FF"/>
</svg>
